<svg width="600" height="400" viewBox="0 0 600 400" fill="none" xmlns="http://www.w3.org/2000/svg">
<path d="M430.001 399.501H399.43L520.993 188.753C522.332 186.431 524.809 185 527.49 185H600V211.5H542.775C540.094 211.5 537.618 212.931 536.278 215.253L430.001 399.501Z" fill="#EC6B6B"/>
<path d="M368.857 399.501H338.285L490.42 135.753C491.759 133.431 494.236 132 496.916 132H600V158.5H512.202C509.522 158.5 507.045 159.931 505.705 162.253L368.857 399.501Z" fill="#FFC400"/>
<path d="M600 399.501H460.859L553.727 238.501L600 238.502V399.501Z" fill="#2E3947"/>
<path d="M277.16 399.501H307.732L475.152 109.254C476.491 106.932 478.968 105.501 481.649 105.501H600V79.001H466.39C463.71 79.001 461.233 80.4314 459.894 82.7531L277.16 399.501Z" fill="#16E5E5"/>
<path d="M246.572 399.501H216L429.295 29.7525C430.635 27.4306 433.111 26.0001 435.792 26.0001L600 26V52.5001L451.078 52.5001C448.397 52.5001 445.92 53.9306 444.581 56.2524L246.572 399.501Z" fill="#AD82F9"/>
</svg>
