<svg width="600" height="400" viewBox="0 0 600 400" fill="none" xmlns="http://www.w3.org/2000/svg">
<path d="M344.001 400H313.43L434.993 189.252C436.332 186.93 438.809 185.499 441.49 185.499H600V211.999H456.775C454.094 211.999 451.618 213.43 450.278 215.752L344.001 400Z" fill="#AD82F9"/>
<path d="M282.857 400H252.285L404.42 136.252C405.759 133.93 408.236 132.499 410.916 132.499H600V158.999H426.202C423.522 158.999 421.045 160.43 419.705 162.752L282.857 400Z" fill="#16E5E5"/>
<path d="M600 400H374.859L467.727 239L600 239.001V400Z" fill="#2E3947"/>
<path d="M191.16 400H221.732L389.152 109.753C390.491 107.431 392.968 106 395.649 106H600V79.5H380.39C377.71 79.5 375.233 80.9304 373.894 83.2522L191.16 400Z" fill="#FFC400"/>
<path d="M160.572 400H130L343.295 30.2515C344.635 27.9297 347.111 26.4991 349.792 26.4991L600 26.499V52.9991L365.078 52.9991C362.397 52.9991 359.92 54.4296 358.581 56.7515L160.572 400Z" fill="#EC6B6B"/>
</svg>
