<svg width="1350" height="1350" viewBox="0 0 1350 1350" fill="none" xmlns="http://www.w3.org/2000/svg">
<path d="M156 375.251L674.5 76L1193 375.251L1193 973.75L674.5 1273L156 973.75L156 375.251Z" fill="white"/>
<path d="M206.971 405.002L674.624 135.001L1142.28 405.002L1142.28 945.001L674.624 1215L206.971 945.001L206.971 405.002Z" fill="#37474F"/>
<path d="M206.971 945.001L206.971 405.001L674.624 675.001V1215L206.971 945.001Z" fill="#FFECB2" fill-opacity="0.12"/>
<path d="M674.625 1215V675.001L1142.28 405.001L1142.28 945.001L674.625 1215Z" fill="#080028" fill-opacity="0.2"/>
<path d="M976.394 860.775L908.452 900.002L830.51 945.002L752.567 990.002L674.625 1035V945.002L752.567 900.002L830.51 855.002L898.452 815.775C904.64 812.202 908.452 805.6 908.452 798.455V720.002V630.002V551.548C908.452 544.403 904.64 537.801 898.452 534.228L860.509 512.322C847.176 504.624 847.176 485.379 860.509 477.681L908.452 450.001L976.394 410.775C982.582 407.202 990.206 407.202 996.394 410.775L1034.34 432.681C1047.67 440.379 1047.67 459.624 1034.34 467.322L996.394 489.228C990.206 492.801 986.394 499.403 986.394 506.549V585.002V675.002V765.002V843.455C986.394 850.6 982.582 857.202 976.394 860.775Z" fill="#EC6B6B"/>
<path d="M440.798 630.002V551.548C440.798 544.403 444.61 537.801 450.798 534.228L518.74 495.001L596.682 450.001L674.625 405.001L742.567 365.774C748.755 362.202 756.379 362.202 762.567 365.774L800.509 387.681C813.843 395.379 813.843 414.624 800.509 422.322L752.567 450.001L674.625 495.001L596.682 540.001L528.74 579.228C522.552 582.801 518.74 589.403 518.74 596.548V675.002V843.453C518.74 850.598 522.552 857.201 528.74 860.773L596.682 900V990L450.798 905.773C444.61 902.201 440.798 895.598 440.798 888.453V810V630.002Z" fill="#16E6E6"/>
<path d="M674.624 945.001V866.547C674.624 859.402 678.436 852.8 684.624 849.227L752.566 810L820.509 770.774C826.697 767.201 830.509 760.599 830.509 753.453V675.001V596.547C830.509 589.402 826.697 582.8 820.509 579.227L762.566 545.774C756.378 542.201 748.754 542.201 742.566 545.774L704.624 567.68C691.291 575.378 691.291 594.623 704.624 602.321L742.567 624.227C748.754 627.8 752.566 634.402 752.566 641.547V708.453C752.566 715.599 748.754 722.201 742.566 725.774L704.624 747.68C691.291 755.378 674.624 745.755 674.624 730.359V686.548C674.624 679.402 670.812 672.8 664.624 669.227L626.682 647.321C613.349 639.623 596.682 649.245 596.682 664.642V720V810V900V990.001V1080V1170L674.624 1215V1125V1035V945.001Z" fill="#FFC400"/>
<path d="M362.855 663.454V596.549C362.855 589.403 359.043 582.801 352.855 579.228L314.913 557.322C301.58 549.624 284.913 559.247 284.913 574.643V630.002V708.455C284.913 715.6 288.725 722.202 294.913 725.775L362.855 765.002L440.798 810.001V720.001L372.855 680.775C366.667 677.202 362.855 670.6 362.855 663.454Z" fill="#AD82F9"/>
<path d="M566.682 342.68L528.74 320.774C522.552 317.202 514.928 317.202 508.74 320.774L440.798 360.001L392.855 387.68C379.522 395.378 379.522 414.623 392.855 422.321L440.798 450.001L518.74 495.001L596.682 450.001L548.74 422.321C535.407 414.623 535.407 395.378 548.74 387.68L566.682 377.321C580.016 369.623 580.016 350.378 566.682 342.68Z" fill="#AD82F9"/>
</svg>
